<svg version="1.1" xmlns="http://www.w3.org/2000/svg" viewBox="0 0 584 569.5" width="584" height="569.5">
  <!-- svg-source:excalidraw -->
  
  <defs>
    <style class="style-fonts">
      @font-face {
        font-family: "Virgil";
        src: url("https://excalidraw.com/Virgil.woff2");
      }
      @font-face {
        font-family: "Cascadia";
        src: url("https://excalidraw.com/Cascadia.woff2");
      }
      @font-face {
        font-family: "Assistant";
        src: url("https://excalidraw.com/Assistant-Regular.woff2");
      }
    </style>
    
  </defs>
  <g stroke-linecap="round" transform="translate(230 10) rotate(0 66 61.5)"><path d="M30.75 0 C51.11 0.17, 72.01 -0.35, 101.25 0 M30.75 0 C52.36 -1.45, 73.03 0.23, 101.25 0 M101.25 0 C120.03 1.53, 132.52 9.06, 132 30.75 M101.25 0 C122.92 1.01, 131.27 9.58, 132 30.75 M132 30.75 C133.22 49.83, 131.06 66.19, 132 92.25 M132 30.75 C133.43 46.79, 132.96 65.33, 132 92.25 M132 92.25 C130.98 111.16, 119.84 123.18, 101.25 123 M132 92.25 C134.12 113.94, 120.55 120.79, 101.25 123 M101.25 123 C84.12 121.66, 68.19 121, 30.75 123 M101.25 123 C77.85 121.54, 54.62 122.69, 30.75 123 M30.75 123 C11.39 123.51, 0.76 114.2, 0 92.25 M30.75 123 C11.33 123.47, -2.13 111.94, 0 92.25 M0 92.25 C-1.55 69.19, -1 47.28, 0 30.75 M0 92.25 C-0.65 69.39, -0.69 49.26, 0 30.75 M0 30.75 C-1.3 11.83, 10.05 1.08, 30.75 0 M0 30.75 C-0.22 9.44, 12.05 -1.91, 30.75 0" stroke="#1e1e1e" stroke-width="2" fill="none"></path></g><g transform="translate(277.38001251220703 59) rotate(0 18.61998748779297 12.5)"><text x="18.61998748779297" y="0" font-family="Virgil, Segoe UI Emoji" font-size="20px" fill="#1e1e1e" text-anchor="middle" style="white-space: pre;" direction="ltr" dominant-baseline="text-before-edge">API</text></g><g stroke-linecap="round" transform="translate(244 436.5) rotate(0 66 61.5)"><path d="M30.75 0 C48.55 -0.78, 64.89 0.32, 101.25 0 M30.75 0 C56.47 -0.58, 80.85 0.99, 101.25 0 M101.25 0 C121.68 -0.47, 131.3 11.51, 132 30.75 M101.25 0 C123.13 -0.35, 131.17 8.61, 132 30.75 M132 30.75 C131.77 55.42, 132.7 78.08, 132 92.25 M132 30.75 C132.24 48.77, 132.29 65.01, 132 92.25 M132 92.25 C130.69 113.21, 122.2 123.05, 101.25 123 M132 92.25 C129.86 111.61, 123.81 122.11, 101.25 123 M101.25 123 C81.57 123.14, 59.64 123.67, 30.75 123 M101.25 123 C80.43 124.21, 58.52 124.48, 30.75 123 M30.75 123 C8.37 123.86, 1.91 110.87, 0 92.25 M30.75 123 C10.62 121.02, -1.85 113.66, 0 92.25 M0 92.25 C0.14 73.73, -0.57 57.89, 0 30.75 M0 92.25 C0.37 75.58, 1.45 59.83, 0 30.75 M0 30.75 C-1.51 10.79, 8.79 -1.28, 30.75 0 M0 30.75 C-2.21 11.8, 9.99 0.96, 30.75 0" stroke="#1e1e1e" stroke-width="2" fill="none"></path></g><g transform="translate(265.1000518798828 485.5) rotate(0 44.89994812011719 12.5)"><text x="44.89994812011719" y="0" font-family="Virgil, Segoe UI Emoji" font-size="20px" fill="#1e1e1e" text-anchor="middle" style="white-space: pre;" direction="ltr" dominant-baseline="text-before-edge">Worker(s)</text></g><g stroke-linecap="round" transform="translate(230 218.5) rotate(0 66 61.5)"><path d="M30.75 0 C54.26 -1.4, 78.32 1.2, 101.25 0 M30.75 0 C56.48 0.55, 80.07 0.35, 101.25 0 M101.25 0 C123.73 -0.1, 131.05 9.84, 132 30.75 M101.25 0 C123.72 0.27, 131.68 9.03, 132 30.75 M132 30.75 C131.45 46.75, 133.85 63.84, 132 92.25 M132 30.75 C132.2 46.87, 132.83 62.49, 132 92.25 M132 92.25 C131.2 113.44, 121.54 124.48, 101.25 123 M132 92.25 C132.53 110.59, 119.76 123.94, 101.25 123 M101.25 123 C77.95 124.75, 53.87 124.26, 30.75 123 M101.25 123 C82.47 123.38, 63.79 123.38, 30.75 123 M30.75 123 C9.15 124.02, -1.08 112.8, 0 92.25 M30.75 123 C8.84 122.25, -2.07 113.77, 0 92.25 M0 92.25 C1.6 68.5, 2.18 45.3, 0 30.75 M0 92.25 C-0.31 76.3, 0.22 59.41, 0 30.75 M0 30.75 C-1.26 9.57, 11.95 -0.93, 30.75 0 M0 30.75 C-1.58 12.47, 9.48 0.28, 30.75 0" stroke="#1e1e1e" stroke-width="2" fill="none"></path></g><g transform="translate(249.86005401611328 255) rotate(0 46.13994598388672 25)"><text x="46.13994598388672" y="0" font-family="Virgil, Segoe UI Emoji" font-size="20px" fill="#1e1e1e" text-anchor="middle" style="white-space: pre;" direction="ltr" dominant-baseline="text-before-edge">Message </text><text x="46.13994598388672" y="25" font-family="Virgil, Segoe UI Emoji" font-size="20px" fill="#1e1e1e" text-anchor="middle" style="white-space: pre;" direction="ltr" dominant-baseline="text-before-edge">Broker</text></g><g stroke-linecap="round" transform="translate(442 218.5) rotate(0 66 61.5)"><path d="M30.75 0 C49.42 -1.66, 65.47 0.75, 101.25 0 M30.75 0 C54.12 0.36, 78.9 0.99, 101.25 0 M101.25 0 C120.41 -0.8, 132.69 10.04, 132 30.75 M101.25 0 C123.46 0.53, 129.84 8.26, 132 30.75 M132 30.75 C132.87 52.43, 133.78 73.34, 132 92.25 M132 30.75 C131.43 52.67, 132.47 74.7, 132 92.25 M132 92.25 C133.29 111.65, 122.77 121.92, 101.25 123 M132 92.25 C132.06 111.34, 121 120.93, 101.25 123 M101.25 123 C77.44 124.11, 52.36 124.69, 30.75 123 M101.25 123 C79.99 122.66, 60.26 123.18, 30.75 123 M30.75 123 C9.47 121.74, -0.68 114.45, 0 92.25 M30.75 123 C9.18 121.42, 2.22 111.98, 0 92.25 M0 92.25 C-0.51 71.89, -1.83 54.73, 0 30.75 M0 92.25 C-0.95 74.5, -0.53 56.96, 0 30.75 M0 30.75 C-0.29 12.01, 11.24 -0.9, 30.75 0 M0 30.75 C-1.26 10.34, 8.02 -0.07, 30.75 0" stroke="#1e1e1e" stroke-width="2" fill="none"></path></g><g transform="translate(492.9300079345703 267.5) rotate(0 15.069992065429688 12.5)"><text x="15.069992065429688" y="0" font-family="Virgil, Segoe UI Emoji" font-size="20px" fill="#1e1e1e" text-anchor="middle" style="white-space: pre;" direction="ltr" dominant-baseline="text-before-edge">DB</text></g><g stroke-linecap="round"><g transform="translate(364 89.1736410218981) rotate(0 47.14207682043866 58.41317948905095)"><path d="M0.47 0.98 C15.95 20.73, 77.8 98.1, 93.38 117.54 M-0.74 0.45 C15.07 19.94, 79.99 96.58, 95.61 115.8" stroke="#1e1e1e" stroke-width="2" fill="none"></path></g><g transform="translate(364 89.1736410218981) rotate(0 47.14207682043866 58.41317948905095)"><path d="M69.7 100.69 C80.08 104.24, 88.5 110.32, 95.61 115.8 M69.7 100.69 C78.6 106.97, 89.55 112.46, 95.61 115.8" stroke="#1e1e1e" stroke-width="2" fill="none"></path></g><g transform="translate(364 89.1736410218981) rotate(0 47.14207682043866 58.41317948905095)"><path d="M85.47 87.56 C90.36 95.67, 93.38 106.24, 95.61 115.8 M85.47 87.56 C88.44 98.74, 93.54 109.09, 95.61 115.8" stroke="#1e1e1e" stroke-width="2" fill="none"></path></g></g><mask></mask><g stroke-linecap="round"><g transform="translate(292.57043561281694 134) rotate(0 2.173280287278942 41.5)"><path d="M1.04 -0.31 C1.76 13.56, 3.64 68.79, 4.12 82.66 M0.13 -1.52 C0.69 12.58, 2.59 69.74, 3.05 84.01" stroke="#1e1e1e" stroke-width="2" fill="none"></path></g><g transform="translate(292.57043561281694 134) rotate(0 2.173280287278942 41.5)"><path d="M-8.14 56.18 C-5.62 63.58, -2.51 71.13, 3.05 84.01 M-8.14 56.18 C-4.52 63.87, -2.42 72.66, 3.05 84.01" stroke="#1e1e1e" stroke-width="2" fill="none"></path></g><g transform="translate(292.57043561281694 134) rotate(0 2.173280287278942 41.5)"><path d="M12.37 55.5 C9.09 63.27, 6.39 71.01, 3.05 84.01 M12.37 55.5 C10.05 63.34, 6.21 72.32, 3.05 84.01" stroke="#1e1e1e" stroke-width="2" fill="none"></path></g></g><mask></mask><g stroke-linecap="round"><g transform="translate(298.01005525636344 347) rotate(0 1.0038519873965583 43.5)"><path d="M-0.47 -0.47 C-0.06 13.97, 1.03 73.1, 1.57 87.68 M1.49 -1.76 C1.78 12.85, 0.24 70.9, 0.39 85.92" stroke="#1e1e1e" stroke-width="2" fill="none"></path></g><g transform="translate(298.01005525636344 347) rotate(0 1.0038519873965583 43.5)"><path d="M-9.59 57.63 C-7.86 63.33, -3.69 71.75, 0.39 85.92 M-9.59 57.63 C-6.11 65.98, -4.44 75.54, 0.39 85.92" stroke="#1e1e1e" stroke-width="2" fill="none"></path></g><g transform="translate(298.01005525636344 347) rotate(0 1.0038519873965583 43.5)"><path d="M10.93 57.83 C8.02 63.4, 7.56 71.78, 0.39 85.92 M10.93 57.83 C8.24 66.21, 3.74 75.71, 0.39 85.92" stroke="#1e1e1e" stroke-width="2" fill="none"></path></g></g><mask></mask><g stroke-linecap="round"><g transform="translate(378.0000000000002 436.61077057927776) rotate(0 40.321328698140746 -45.30538528963888)"><path d="M0.48 0.18 C13.83 -15.3, 66.75 -76.64, 80.16 -91.68 M-0.72 -0.78 C12.42 -15.63, 65.45 -75.47, 78.96 -90.71" stroke="#1e1e1e" stroke-width="2" fill="none"></path></g><g transform="translate(378.0000000000002 436.61077057927776) rotate(0 40.321328698140746 -45.30538528963888)"><path d="M67.94 -62.81 C71.31 -72.15, 72.58 -79.36, 78.96 -90.71 M67.94 -62.81 C71.6 -73.12, 76.25 -81.61, 78.96 -90.71" stroke="#1e1e1e" stroke-width="2" fill="none"></path></g><g transform="translate(378.0000000000002 436.61077057927776) rotate(0 40.321328698140746 -45.30538528963888)"><path d="M52.58 -76.42 C60.76 -81.68, 66.7 -84.75, 78.96 -90.71 M52.58 -76.42 C61.39 -82.11, 71.29 -85.94, 78.96 -90.71" stroke="#1e1e1e" stroke-width="2" fill="none"></path></g></g><mask></mask><g stroke-linecap="round" transform="translate(10 223.5) rotate(0 66 61.5)"><path d="M30.75 0 C43.16 0.04, 57.34 -0.84, 101.25 0 M30.75 0 C50.28 -0.7, 69.85 -1.51, 101.25 0 M101.25 0 C121.44 1.86, 131.27 12.12, 132 30.75 M101.25 0 C123.19 -1.55, 133.46 10.01, 132 30.75 M132 30.75 C131.77 45.54, 132.1 59.65, 132 92.25 M132 30.75 C131.8 49.85, 132.41 68.4, 132 92.25 M132 92.25 C131.03 114.37, 119.99 122.33, 101.25 123 M132 92.25 C130.17 114.18, 120.21 123, 101.25 123 M101.25 123 C87.08 121.84, 71.93 121.76, 30.75 123 M101.25 123 C82.83 123, 64.53 123.53, 30.75 123 M30.75 123 C9.91 123.52, -1.32 111.24, 0 92.25 M30.75 123 C11.27 123.69, -0.54 112.68, 0 92.25 M0 92.25 C-1.27 75.71, -0.7 56.91, 0 30.75 M0 92.25 C0.23 72.87, -1.06 53.17, 0 30.75 M0 30.75 C-1.48 10.36, 8.52 0.22, 30.75 0 M0 30.75 C-0.03 8.03, 12.13 -1.67, 30.75 0" stroke="#1e1e1e" stroke-width="2" fill="none"></path></g><g transform="translate(37.28004455566406 260) rotate(0 38.71995544433594 25)"><text x="38.71995544433594" y="0" font-family="Virgil, Segoe UI Emoji" font-size="20px" fill="#1e1e1e" text-anchor="middle" style="white-space: pre;" direction="ltr" dominant-baseline="text-before-edge">Blob </text><text x="38.71995544433594" y="25" font-family="Virgil, Segoe UI Emoji" font-size="20px" fill="#1e1e1e" text-anchor="middle" style="white-space: pre;" direction="ltr" dominant-baseline="text-before-edge">Storage</text></g><g stroke-linecap="round"><g transform="translate(225 108.90661975292858) rotate(0 -42.54606402882382 54.04669012353571)"><path d="M0.73 0.77 C-13.32 18.69, -70.54 90.43, -85.01 108.29 M-0.34 0.13 C-14.49 17.59, -72.02 88.09, -85.91 106.27" stroke="#1e1e1e" stroke-width="2" fill="none"></path></g><g transform="translate(225 108.90661975292858) rotate(0 -42.54606402882382 54.04669012353571)"><path d="M-76.42 77.81 C-77.29 85, -80.58 90.26, -85.91 106.27 M-76.42 77.81 C-78.88 85.22, -82.88 94.78, -85.91 106.27" stroke="#1e1e1e" stroke-width="2" fill="none"></path></g><g transform="translate(225 108.90661975292858) rotate(0 -42.54606402882382 54.04669012353571)"><path d="M-60.35 90.56 C-65.24 94.72, -72.48 96.84, -85.91 106.27 M-60.35 90.56 C-67.36 94.18, -75.99 100.07, -85.91 106.27" stroke="#1e1e1e" stroke-width="2" fill="none"></path></g></g><mask></mask><g stroke-linecap="round"><g transform="translate(226.04606407943254 435.2130715015362) rotate(0 -40.770056006861694 -39.25824671805407)"><path d="M-0.15 -0.83 C-14.01 -14.06, -68.45 -65.53, -82.17 -78.64 M-1.69 1.35 C-15.24 -11.75, -66.72 -63.83, -79.79 -77.17" stroke="#1e1e1e" stroke-width="2" fill="none"></path></g><g transform="translate(226.04606407943254 435.2130715015362) rotate(0 -40.770056006861694 -39.25824671805407)"><path d="M-52.69 -64.29 C-64.49 -70.29, -73.65 -75.72, -79.79 -77.17 M-52.69 -64.29 C-58.51 -66.25, -64.18 -70.04, -79.79 -77.17" stroke="#1e1e1e" stroke-width="2" fill="none"></path></g><g transform="translate(226.04606407943254 435.2130715015362) rotate(0 -40.770056006861694 -39.25824671805407)"><path d="M-67.31 -49.89 C-73.62 -61.36, -77.21 -72.29, -79.79 -77.17 M-67.31 -49.89 C-69.91 -55.08, -72.42 -61.98, -79.79 -77.17" stroke="#1e1e1e" stroke-width="2" fill="none"></path></g></g><mask></mask></svg>